{"title":"X-Men Days of Future Past 2014 HDCAM V2 x264 AC3 TiTAN","uid":10247565,"size":1478151626,"categoryP":"video","categoryS":"movies","magnet":"?xt=urn:btih:5b23295d6349b463525765f98ff5eb707d9d2411&amp;dn=X-Men+Days+of+Future+Past+2014+HDCAM+V2+x264+AC3+TiTAN&amp;tr=udp%3A%2F%2Ftracker.openbittorrent.com%3A80&amp;tr=udp%3A%2F%2Fopen.demonii.com%3A1337&amp;tr=udp%3A%2F%2Ftracker.coppersurfer.tk%3A6969&amp;tr=udp%3A%2F%2Fexodus.desync.com%3A6969","seeders":0,"leechers":2,"uploader":"xxxlavalxxx","files":-1,"time":1401310249,"description":"\n &lt;a href=&quot;\nhttp://www.imdb.com/title/tt1877832/&quot; rel=&quot;nofollow&quot; target=&quot;_NEW&quot;&gt;\nhttp://www.imdb.com/title/tt1877832/&lt;/a&gt;\n\n\nThe X-Men send Wolverine to the past in a desperate effort to change history and prevent an event that results in doom for both humans and mutants.\n\nDirector: Bryan Singer\nWriters: Simon Kinberg (screenplay), Jane Goldman (story)\nStars: Patrick Stewart, Ian McKellen, Hugh Jackman\nGenres: Action | Adventure | Fantasy | Sci-Fi\n\n\nSource: rus cam proper \n\nOK much better new source.. vid is much better.. was very dark. so spent time brightening up as much as possible. no camera movement or anything, and even has english hardcoded subs for non english parts.. sound is ok, a little staticky at times but very understandable.. Sync was out.. so did This V2 with proper sync.. Now a cvery descent cam.. Enjoy\n\nGeneral\n\nFormat                                   : Matroska\nFormat version                           : Version 2\nFile size                                : 1.38 GiB\nDuration                                 : 2h 2mn\nOverall bit rate mode                    : Variable\nOverall bit rate                         : 1 612 Kbps\nEncoded date                             : UTC 2014-05-28 13:10:08\nWriting application                      : mkvmerge v6.9.1 ('Blue Panther') 32bit built on Apr 18 2014 18:15:44\nWriting library                          : libebml v1.3.0 + libmatroska v1.4.1\n\nVideo\nID                                       : 1\nFormat                                   : AVC\nFormat/Info                              : Advanced Video Codec\nFormat profile                           : &lt;a class=&quot;__cf_email__&quot; href=&quot;/cdn-cgi/l/email-protection&quot; data-cfemail=&quot;ace4c5cbc4ece098829d&quot;&gt;[email&amp;#160;protected]&lt;/a&gt;&lt;script data-cfhash='f9e31' type=&quot;text/javascript&quot;&gt;\n/* &lt;![CDATA[ */!function(){try{var t=&quot;currentScript&quot;in document?document.currentScript:function(){for(var t=document.getElementsByTagName(&quot;script&quot;),e=t.length;e--;)if(t[e].getAttribute(&quot;data-cfhash&quot;))return t[e]}();if(t&amp;&amp;t.previousSibling){var e,r,n,i,c=t.previousSibling,a=c.getAttribute(&quot;data-cfemail&quot;);if(a){for(e=&quot;&quot;,r=parseInt(a.substr(0,2),16),n=2;a.length-n;n+=2)i=parseInt(a.substr(n,2),16)^r,e+=String.fromCharCode(i);e=document.createTextNode(e),c.parentNode.replaceChild(e,c)}t.parentNode.removeChild(t);}}catch(u){}}()/* ]]&gt; */&lt;/script&gt;\nFormat settings, CABAC                   : Yes\nFormat settings, ReFrames                : 3 frames\nCodec ID                                 : V_MPEG4/ISO/AVC\nDuration                                 : 2h 2mn\nBit rate mode                            : Variable\nBit rate                                 : 1 388 Kbps\nMaximum bit rate                         : 40.0 Mbps\nWidth                                    : 720 pixels\nHeight                                   : 288 pixels\nDisplay aspect ratio                     : 2.500\nFrame rate mode                          : Constant\nFrame rate                               : 23.976 fps\nColor space                              : YUV\nChroma subsampling                       : 4:2:0\nBit depth                                : 8 bits\nScan type                                : Progressive\nBits/(Pixel*Frame)                       : 0.279\nStream size                              : 1.19 GiB (86%)\nWriting library                          : x264 core 142 r2431 ac76440\nDefault                                  : Yes\nForced                                   : No\nColor primaries                          : BT.709\nTransfer characteristics                 : BT.709\nMatrix coefficients                      : BT.709\n\nAudio\nID                                       : 2\nFormat                                   : AC-3\nFormat/Info                              : Audio Coding 3\nMode extension                           : CM (complete main)\nFormat settings, Endianness              : Big\nCodec ID                                 : A_AC3\nDuration                                 : 2h 2mn\nBit rate mode                            : Constant\nBit rate                                 : 192 Kbps\nChannel(s)                               : 2 channels\nChannel positions                        : Front: L R\nSampling rate                            : 48.0 KHz\nBit depth                                : 16 bits\nCompression mode                         : Lossy\nStream size                              : 168 MiB (12%)\nDefault                                  : Yes\nForced                                   : No\n &lt;a href=&quot;\nhttp://i.imgur.com/8sZR1Tn.png&quot; rel=&quot;nofollow&quot; target=&quot;_NEW&quot;&gt;\nhttp://i.imgur.com/8sZR1Tn.png&lt;/a&gt; &lt;a href=&quot;\nhttp://i.imgur.com/sCOE5Qg.png&quot; rel=&quot;nofollow&quot; target=&quot;_NEW&quot;&gt;\nhttp://i.imgur.com/sCOE5Qg.png&lt;/a&gt; &lt;a href=&quot;\nhttp://i.imgur.com/78WYXJj.png&quot; rel=&quot;nofollow&quot; target=&quot;_NEW&quot;&gt;\nhttp://i.imgur.com/78WYXJj.png&lt;/a&gt; &lt;a href=&quot;\nhttp://i.imgur.com/cpIFmWg.png&quot; rel=&quot;nofollow&quot; target=&quot;_NEW&quot;&gt;\nhttp://i.imgur.com/cpIFmWg.png&lt;/a&gt; &lt;a href=&quot;\nhttp://i.imgur.com/wZOdEUV.png&quot; rel=&quot;nofollow&quot; target=&quot;_NEW&quot;&gt;\nhttp://i.imgur.com/wZOdEUV.png&lt;/a&gt; &lt;a href=&quot;\nhttp://i.imgur.com/qaSfDf0.png&quot; rel=&quot;nofollow&quot; target=&quot;_NEW&quot;&gt;\nhttp://i.imgur.com/qaSfDf0.png&lt;/a&gt; &lt;a href=&quot;\nhttp://i.imgur.com/ag0sOId.png&quot; rel=&quot;nofollow&quot; target=&quot;_NEW&quot;&gt;\nhttp://i.imgur.com/ag0sOId.png&lt;/a&gt; &lt;a href=&quot;\nhttp://i.imgur.com/63guCpM.png&quot; rel=&quot;nofollow&quot; target=&quot;_NEW&quot;&gt;\nhttp://i.imgur.com/63guCpM.png&lt;/a&gt; &lt;a href=&quot;\nhttp://i.imgur.com/ZbriufJ.png&quot; rel=&quot;nofollow&quot; target=&quot;_NEW&quot;&gt;\nhttp://i.imgur.com/ZbriufJ.png&lt;/a&gt;","torrent":{"xt":"urn:btih:5b23295d6349b463525765f98ff5eb707d9d2411","amp;dn":"X-Men+Days+of+Future+Past+2014+HDCAM+V2+x264+AC3+TiTAN","amp;tr":["udp%3A%2F%2Ftracker.openbittorrent.com%3A80","udp%3A%2F%2Fopen.demonii.com%3A1337","udp%3A%2F%2Ftracker.coppersurfer.tk%3A6969","udp%3A%2F%2Fexodus.desync.com%3A6969"],"infoHash":"5b23295d6349b463525765f98ff5eb707d9d2411","infoHashBuffer":{"type":"Buffer","data":[91,35,41,93,99,73,180,99,82,87,101,249,143,245,235,112,125,157,36,17]},"announce":[],"urlList":[]}}